<svg xmlns="http://www.w3.org/2000/svg" width="352.698" height="17.478" viewBox="0 0 352.698 17.478">
  <g id="グループ_426" data-name="グループ 426" transform="translate(-336.828 -4873.178)">
    <path id="パス_206" data-name="パス 206" d="M5.31,1.656A9.588,9.588,0,0,0,8.64.216a5.754,5.754,0,0,0,2.5-4.914,4.69,4.69,0,0,0-.63-2.484V-7.56c0-.666.054-1.89.126-2.808a14.508,14.508,0,0,1,1.53-.072,18.5,18.5,0,0,1,2.934.2c.684.09.918.126,1.08.126.378,0,.648-.216.648-.54a.833.833,0,0,0-.324-.684,3.282,3.282,0,0,0-1.746-.738,1.658,1.658,0,0,0-.774.18c-.54.252-.828.288-3.258.5a2.886,2.886,0,0,1,.4-1.386,1.091,1.091,0,0,0,.18-.576c0-.414-.324-.7-1.026-.936A6.957,6.957,0,0,0,8.244-14.6a1.337,1.337,0,0,0-1.116.36c1.62.306,1.908.756,1.926,3.042-1.044.126-1.728.216-2.484.306a26.134,26.134,0,0,1-3.726.468A2.207,2.207,0,0,1,.9-11.484a.963.963,0,0,0-.072.324,2.878,2.878,0,0,0,.558,1.4A2.084,2.084,0,0,0,2.952-8.64a1.491,1.491,0,0,0,.522-.108A18.111,18.111,0,0,1,9.09-10.224c.018.774.018.828.018,1.242v.828a2.216,2.216,0,0,0-1.1-.288,2.658,2.658,0,0,0-2.556,2.9A2.648,2.648,0,0,0,7.866-2.628a1.848,1.848,0,0,0,1.116-.324A6.322,6.322,0,0,1,5.22,1.44ZM9.072-5.832c0,.99-.414,1.566-1.1,1.566-.774,0-1.314-.792-1.314-1.908,0-1.008.54-1.746,1.26-1.746C8.658-7.92,9.072-7.164,9.072-5.832Zm3.276-9.2a6.494,6.494,0,0,1,1.944,2.322c.162.288.27.378.45.378.342,0,.558-.288.558-.7a1.857,1.857,0,0,0-.9-1.458,5.794,5.794,0,0,0-1.854-.846Zm2.484-.486a7.244,7.244,0,0,1,2,2.16c.18.288.306.4.486.4.288,0,.5-.288.5-.684a1.741,1.741,0,0,0-.882-1.386,5.508,5.508,0,0,0-1.908-.792ZM25.074-2.664c1.206,1.044,1.71,1.656,1.746,2.07.036.54.036.54.126.684a.7.7,0,0,0,.612.288,2.95,2.95,0,0,0,2.25-1.17,11.723,11.723,0,0,0,1.818-6.264,3.74,3.74,0,0,0-.594-2.466,2.294,2.294,0,0,0-1.944-.81,5.731,5.731,0,0,0-1.314.162,12.088,12.088,0,0,1,1.116-2.25,1.049,1.049,0,0,0,.234-.612c0-.486-.54-.9-1.566-1.224a5.96,5.96,0,0,0-1.566-.27,1.168,1.168,0,0,0-.7.216c1.026.342,1.458.792,1.458,1.512a10.066,10.066,0,0,1-.63,2.9,14.481,14.481,0,0,1-2.772.54,1.62,1.62,0,0,1-1.584-1.116,1.068,1.068,0,0,0-.108.468,3.3,3.3,0,0,0,.612,1.656,1.423,1.423,0,0,0,1.008.684.943.943,0,0,0,.54-.2,14.371,14.371,0,0,1,1.962-.954c-1.422,3.294-2.43,5.13-3.276,6.012a1.441,1.441,0,0,0-.522,1.3c0,1.008.342,1.692.846,1.692s.828-.45,1.656-2.358c.234-.576,1.224-2.952,2.934-7.128A4.905,4.905,0,0,1,29-9.63c.756,0,1.044.414,1.044,1.458A14.178,14.178,0,0,1,28.728-2.7c-.306.63-.558.864-.936.864A8.656,8.656,0,0,1,25.2-2.862Zm7.74-7.542A4.752,4.752,0,0,1,35.28-7.6a5.732,5.732,0,0,1,.468,1.764c0,.162-.036.234-.126.288a18.57,18.57,0,0,1-2.646.792l.036.18c2.034.018,2.376.072,2.772.432a1.091,1.091,0,0,0,.792.36c.792,0,1.26-.666,1.26-1.782a4.366,4.366,0,0,0-1.386-3.06A6.307,6.307,0,0,0,32.9-10.4ZM57.852-6.264a8.59,8.59,0,0,1-2.214,3.348,4.632,4.632,0,0,1-2.88,1.4A1.15,1.15,0,0,1,52-1.746c-.252-.216-.378-.612-.522-1.476a5.415,5.415,0,0,0-.45-1.872,2.321,2.321,0,0,0-2.178-1.35A4.548,4.548,0,0,0,45.918-5H45.9c.306-.5.306-.5.864-1.44.756-1.242.756-1.242,2.016-3.258a13.037,13.037,0,0,1,1.35-1.944c.36-.378.432-.522.432-.792,0-.414-.288-.774-.9-1.188a4.984,4.984,0,0,0-2.376-.882,1.318,1.318,0,0,0-.7.18c.936.378,1.35.828,1.35,1.44a11.287,11.287,0,0,1-1.278,3.6,47.305,47.305,0,0,1-3.6,6.516c-.468.612-.54.774-.54,1.206A3.931,3.931,0,0,0,42.8-.288c.18.432.45.666.774.666.4,0,.63-.252.828-.828a11.722,11.722,0,0,1,1.62-3.6,3.184,3.184,0,0,1,2.412-1.656c.918,0,1.278.594,1.368,2.214a8.762,8.762,0,0,0,.072,1.206,3.651,3.651,0,0,0,.54,1.908,2.46,2.46,0,0,0,2.034.864,4.963,4.963,0,0,0,3.924-2.268A9.954,9.954,0,0,0,58.05-6.21Zm8.19-7.776a.877.877,0,0,0-.126.5c0,.99.99,2.268,1.746,2.268a1.054,1.054,0,0,0,.63-.234,13.374,13.374,0,0,1,1.98-1.116,7.814,7.814,0,0,1,1.8-.684c.108,0,.18.054.18.162,0,.144-.108.306-.5.756a49.846,49.846,0,0,1-6.012,5.526,5.42,5.42,0,0,1-1.62.882c-.4.126-.522.252-.522.522A1.7,1.7,0,0,0,64.98-3.96c.18,0,.288-.054.612-.27A25.874,25.874,0,0,1,71.55-6.75a6.755,6.755,0,0,0-1.944,1.584,4.042,4.042,0,0,0-.99,2.484c0,2.16,2,3.636,4.95,3.636.99,0,1.476-.252,1.476-.774A1.854,1.854,0,0,0,73.53-1.368a1.865,1.865,0,0,0-.288.018,4.6,4.6,0,0,1-.846.072c-1.638,0-2.682-.792-2.682-2.034a3.452,3.452,0,0,1,2.25-2.97,11.056,11.056,0,0,1,3.4-.81c1.4-.072,1.4-.072,1.62-.18a.651.651,0,0,0,.324-.558c0-.36-.234-.684-.738-.972a2.658,2.658,0,0,0-1.1-.378c-.2,0-.2,0-.738.216a4.953,4.953,0,0,1-.936.306c-.846.252-.846.252-1.26.36-2.16.612-2.16.612-2.718.774-1.26.4-2.268.72-4.1,1.368,3.1-2.052,5.6-3.744,6.282-4.266a10.344,10.344,0,0,1,1.962-1.314c.522-.216.63-.306.63-.558a3.055,3.055,0,0,0-2.124-2.178.758.758,0,0,0-.468.18c-.432.36-.432.36-1.476.684a13.719,13.719,0,0,1-3.042.684C66.87-12.924,66.474-13.248,66.042-14.04Zm24.192-.9a2.137,2.137,0,0,1,.7.522,1.2,1.2,0,0,1,.342.72c0,.378-.468,1.116-1.458,2.3-1.8,2.2-1.8,2.2-2.214,2.772a2.615,2.615,0,0,0-.54,1.458A2.09,2.09,0,0,0,87.372-6.1a12.1,12.1,0,0,0,1.386,1.746A19.11,19.11,0,0,1,91.836.4c.288.684.5.9.918.9.63,0,1.1-.7,1.1-1.674a3.188,3.188,0,0,0-1.1-2.322,26.879,26.879,0,0,0-2.628-2.286,19.217,19.217,0,0,1-1.638-1.278,1.294,1.294,0,0,1-.54-.9c0-.432.378-.972,1.134-1.692a21.887,21.887,0,0,1,3.528-2.61c.972-.612,1.188-.828,1.188-1.278,0-.5-.486-1.116-1.314-1.638a3.674,3.674,0,0,0-1.764-.648A1.273,1.273,0,0,0,90.234-14.94Zm13.626,4.356a1.32,1.32,0,0,0-.072.378c0,.774.9,1.962,1.494,1.962A1.213,1.213,0,0,0,106-8.55a11.015,11.015,0,0,1,1.638-.99c-.036.468-.036.522-.09,1.3a34.3,34.3,0,0,1-2.484,3.474,6.33,6.33,0,0,1-.882,1.062c-.342.324-.432.486-.432.81,0,.81.432,1.674.828,1.674.324,0,.54-.27.99-1.242A5.575,5.575,0,0,1,106.9,0a1.739,1.739,0,0,0,.18.54.63.63,0,0,0,.576.306c.738,0,1.3-.99,1.3-2.268,0-.27,0-.486-.018-.72-.18-2.232-.216-2.826-.216-3.636,0-.108,0-.306.018-.54a17.048,17.048,0,0,1,2.79-2.7,4.529,4.529,0,0,1,2.736-1.26c1.458,0,2.214,1.44,2.214,4.176a11.329,11.329,0,0,1-.216,2.3,5.738,5.738,0,0,0-1.764-.27c-1.782,0-3.06.954-3.06,2.286,0,1.206,1.08,2.034,2.664,2.034a3.894,3.894,0,0,0,2.124-.594,3.032,3.032,0,0,0,1.134-1.152A6.8,6.8,0,0,1,118.71-.27c.234.288.378.378.558.378.36,0,.666-.522.666-1.08,0-.972-.414-1.458-1.872-2.2A9.019,9.019,0,0,0,118.4-5.76c0-3.222-1.476-5.256-3.78-5.256a5.7,5.7,0,0,0-3.042,1.044,22.861,22.861,0,0,0-2.808,2.178c.018-.18.018-.216.036-.4a1.286,1.286,0,0,1,.036-.378c.342-.45.576-.738.7-.882.234-.27.306-.4.306-.558,0-.252-.162-.468-.666-.882a5.547,5.547,0,0,1,.36-1.1c.234-.414.288-.54.288-.738a1.541,1.541,0,0,0-.684-1.17,3.93,3.93,0,0,0-2.034-.9.91.91,0,0,0-.45.108,1.826,1.826,0,0,1,1.17,1.764c0,.468-.054,1.206-.162,2.394a10.966,10.966,0,0,1-2.61.81C104.6-9.72,104.238-9.99,103.86-10.584Zm3.582,4.68c-.036.828-.054,1.3-.054,2.07-.018,1.116-.036,1.8-.036,2.016a6.292,6.292,0,0,1-1.6-.954C106.074-3.456,107.1-5.31,107.442-5.9ZM115.83-2.43c-.36.72-.414.81-.756,1.08a2.5,2.5,0,0,1-1.62.522c-.882,0-1.44-.378-1.44-.954,0-.684.72-1.116,1.8-1.116A4.5,4.5,0,0,1,115.83-2.43ZM130.05-.486A16.045,16.045,0,0,0,135.486-1.6c2.682-1.1,4.176-3.024,4.176-5.346,0-2.628-2.142-4.464-5.238-4.464-1.908,0-3.6.468-6.7,1.872a6.3,6.3,0,0,1-2.214.684c-.522,0-.918-.306-1.314-1.008a1.008,1.008,0,0,0-.126.45A3.251,3.251,0,0,0,126.7-6.66a1.163,1.163,0,0,0,.9-.4,9.749,9.749,0,0,1,1.566-1.332,8.926,8.926,0,0,1,5.184-2.142,2.939,2.939,0,0,1,3.078,3.078,5.311,5.311,0,0,1-1.836,3.96A13.827,13.827,0,0,1,130-.7Zm23.094.126.63-3.888-.612-.126c-.324,1.62-.846,2.088-2.322,2.088h-5.22a4.8,4.8,0,0,1,1.422-2.034,17.019,17.019,0,0,1,3.744-2.448,7.563,7.563,0,0,0,1.98-1.476,3.337,3.337,0,0,0,.81-2.268c0-2.088-1.62-3.33-4.338-3.33a5.214,5.214,0,0,0-2.988.81,3.109,3.109,0,0,0-1.494,2.538c0,.648.414.954,1.278.954.792,0,1.116-.288,1.152-.99a4.931,4.931,0,0,1,.2-1.638,1.633,1.633,0,0,1,1.674-1.206c1.278,0,2.124,1.026,2.124,2.592a3.724,3.724,0,0,1-.378,1.656A5.333,5.333,0,0,1,149.31-7.47a16.321,16.321,0,0,0-3.564,3.6A7.823,7.823,0,0,0,144.54-.36Z" transform="translate(336 4889)" fill="#2c3849"/>
    <path id="パス_205" data-name="パス 205" d="M.882-3.6a1.106,1.106,0,0,1,1.036-.56,5.24,5.24,0,0,1,1.456.266,5.729,5.729,0,0,0,1.442.28c.756,0,1.26-.448,1.54-1.386L6.1-5.152a1.106,1.106,0,0,1-1.078.56,5.961,5.961,0,0,1-1.372-.266A6.406,6.406,0,0,0,2.17-5.124C1.386-5.124.9-4.676.63-3.752ZM13.51-7.238,9.38-.658V-.28h5.852l.322-2.786-.434-.056a4.087,4.087,0,0,1-.728,1.708A2.49,2.49,0,0,1,12.32-.63H11.284l4.088-6.538v-.42H9.926l-.28,2.52.448.056c.322-1.582,1.022-2.226,2.366-2.226ZM26.474-.28V-.6c-.77-.014-.91-.238-.91-1.456V-4.97c0-.882,0-.882.084-2.8l-2.814.182v.336c.588.014.672.042.812.154.154.154.21.434.21,1.2v2.212a3.948,3.948,0,0,1-.266,1.666A1.694,1.694,0,0,1,22.078-.84a.942.942,0,0,1-.98-.686,4.766,4.766,0,0,1-.182-1.708V-3.5l.014-1.484c.014-1.246.042-1.778.112-2.786l-2.814.182v.336c.63.014.742.056.868.224a1.955,1.955,0,0,1,.154,1.022c0,.042-.014.07-.014.112l-.028,2.828v.2a4.027,4.027,0,0,0,.266,1.736A1.9,1.9,0,0,0,21.28-.084a3.032,3.032,0,0,0,2.576-1.54,13.753,13.753,0,0,0,.07,1.47ZM31.85-3.052l.784-.882,1.344,2.408c.1.182.476.938.616,1.246H37.17V-.588c-.644-.14-.938-.392-1.456-1.26L33.768-5.194l.518-.574A4.483,4.483,0,0,1,35.63-6.9a3.117,3.117,0,0,1,1.176-.364v-.322H33.194v.322c.672.042.966.224.966.6a1.511,1.511,0,0,1-.434.882L31.85-3.626v-4.41c0-.938.028-1.834.084-2.87l-2.842.154v.322c.966,0,1.064.126,1.064,1.358v7.056c0,1.246-.1,1.386-1.05,1.4V-.28H32.9V-.616c-.952-.014-1.05-.14-1.05-1.4ZM46.886-.658c-.9-.014-.952-.1-.952-1.638,0-.1,0-.364.014-.756l.014-1.218.014-1.218a2.208,2.208,0,0,0-.546-1.736A2.982,2.982,0,0,0,43.358-7.8a4.29,4.29,0,0,0-2.3.532,1.6,1.6,0,0,0-.868,1.3c0,.42.336.644.98.644.588,0,.826-.182.854-.686A2.11,2.11,0,0,1,42.252-7a.967.967,0,0,1,.938-.476c.84,0,1.092.434,1.092,1.918v.91a17.027,17.027,0,0,0-2.3.266c-1.5.294-2.24,1.036-2.24,2.24A1.961,1.961,0,0,0,41.9-.084,3.115,3.115,0,0,0,44.3-1.218c.07.854.21,1.064.658,1.064.364,0,1.106-.07,1.932-.168Zm-2.6-2.59a3.581,3.581,0,0,1-.252,1.624A1.524,1.524,0,0,1,42.672-.7c-.686,0-1.134-.658-1.134-1.652,0-1.3.714-1.82,2.744-1.974ZM52.388-7.77l-2.73.182v.336c.924.014,1.036.168,1.036,1.358v3.878c0,1.246-.1,1.386-1.064,1.4V-.28h3.822V-.616c-.952-.014-1.05-.14-1.05-1.4v-2.8a3.252,3.252,0,0,1,.378-1.442,1.654,1.654,0,0,1,1.442-.924c.868,0,1.232.63,1.232,2.142v3.024c0,1.232-.112,1.386-1.05,1.4V-.28h3.808V-.616c-.966-.014-1.064-.154-1.064-1.4V-5.124a3.1,3.1,0,0,0-.35-1.722,1.988,1.988,0,0,0-1.9-.952A2.677,2.677,0,0,0,52.4-6.384ZM67.816-.182a2.968,2.968,0,0,1,.714-.084,3.061,3.061,0,0,1,.5.042,7.287,7.287,0,0,0,1.428.168,2.238,2.238,0,0,0,2.52-2.338c0-1.05-.462-1.6-1.89-2.254a6.148,6.148,0,0,1-1.568-.812.984.984,0,0,1-.434-.854,1.134,1.134,0,0,1,1.246-1.162c1.008,0,1.6.756,1.694,2.184h.518l.126-2.45A1.84,1.84,0,0,1,72-7.6a3.168,3.168,0,0,1-.616-.084,6.655,6.655,0,0,0-.994-.112c-1.582,0-2.59.868-2.59,2.226a1.72,1.72,0,0,0,.49,1.26A4,4,0,0,0,69.8-3.36c1.624.756,1.988,1.064,1.988,1.75,0,.77-.518,1.218-1.372,1.218a1.738,1.738,0,0,1-1.568-.882,3.289,3.289,0,0,1-.42-1.47h-.5ZM82.978-4.228a5.12,5.12,0,0,0-.252-1.722,2.851,2.851,0,0,0-2.9-1.848c-2.128,0-3.514,1.54-3.514,3.892A3.505,3.505,0,0,0,79.968-.07a3.169,3.169,0,0,0,3.08-1.918l-.35-.224a2.6,2.6,0,0,1-2.31,1.6A2.014,2.014,0,0,1,78.484-2a5.481,5.481,0,0,1-.364-2.226Zm-4.844-.406a5.919,5.919,0,0,1,.294-1.61c.294-.812.756-1.232,1.358-1.232.546,0,.938.35,1.2,1.092a5.466,5.466,0,0,1,.238,1.75Zm14.28,2.38A2.536,2.536,0,0,1,90.146-.6,1.836,1.836,0,0,1,88.48-1.708a5.384,5.384,0,0,1-.49-2.38,7.666,7.666,0,0,1,.392-2.478,1.388,1.388,0,0,1,1.288-.9c.686,0,1.092.476,1.148,1.316.028.5.028.5.112.616a.933.933,0,0,0,.714.252c.574,0,.952-.266.952-.686,0-.994-1.33-1.834-2.884-1.834a3.5,3.5,0,0,0-2.492.938,4.355,4.355,0,0,0-1.106,3.024,3.5,3.5,0,0,0,3.6,3.78,3.2,3.2,0,0,0,3.066-1.96Zm3.262-1.624a4.13,4.13,0,0,0,.966,2.758A3.57,3.57,0,0,0,99.274-.056a3.729,3.729,0,0,0,2.772-1.134,4.261,4.261,0,0,0,.924-2.772A3.506,3.506,0,0,0,99.344-7.8a3.6,3.6,0,0,0-2.618.994A4.316,4.316,0,0,0,95.676-3.878Zm1.89-.07a6.185,6.185,0,0,1,.448-2.716,1.387,1.387,0,0,1,1.3-.812c1.218,0,1.778,1.12,1.778,3.57S100.548-.378,99.33-.378,97.566-1.526,97.566-3.948Zm11.1-3.822-2.73.182v.336c.924.014,1.036.168,1.036,1.358v3.878c0,1.246-.1,1.386-1.064,1.4V-.28h3.822V-.616c-.952-.014-1.05-.14-1.05-1.4v-2.8a3.252,3.252,0,0,1,.378-1.442,1.654,1.654,0,0,1,1.442-.924c.868,0,1.232.63,1.232,2.142v3.024c0,1.232-.112,1.386-1.05,1.4V-.28h3.808V-.616c-.966-.014-1.064-.154-1.064-1.4V-5.124a3.1,3.1,0,0,0-.35-1.722,1.988,1.988,0,0,0-1.9-.952,2.677,2.677,0,0,0-2.492,1.414Zm12.866-2.982v.322c.98.014,1.064.112,1.064,1.414V-7a2.579,2.579,0,0,0-1.932-.8c-1.96,0-3.22,1.582-3.22,4.06A4.066,4.066,0,0,0,118.37-.91a2.831,2.831,0,0,0,2.044.84,2.863,2.863,0,0,0,2.3-1.106l.056,1.022L125.23-.28V-.6c-.462-.014-.532-.028-.658-.112-.21-.168-.266-.546-.266-1.68V-8.05c0-1.078.028-1.806.084-2.856Zm1.106,6.706C122.64-1.82,122-.5,120.918-.5a1.158,1.158,0,0,1-.966-.5,5.426,5.426,0,0,1-.644-2.968c0-2.2.6-3.444,1.666-3.444S122.64-6.216,122.64-4.046ZM134.82-.182a2.968,2.968,0,0,1,.714-.084,3.061,3.061,0,0,1,.5.042,7.287,7.287,0,0,0,1.428.168,2.238,2.238,0,0,0,2.52-2.338c0-1.05-.462-1.6-1.89-2.254a6.148,6.148,0,0,1-1.568-.812.984.984,0,0,1-.434-.854,1.134,1.134,0,0,1,1.246-1.162c1.008,0,1.6.756,1.694,2.184h.518l.126-2.45a1.84,1.84,0,0,1-.672.14,3.168,3.168,0,0,1-.616-.084A6.655,6.655,0,0,0,137.4-7.8c-1.582,0-2.59.868-2.59,2.226a1.72,1.72,0,0,0,.49,1.26,4,4,0,0,0,1.512.952C138.432-2.6,138.8-2.3,138.8-1.61c0,.77-.518,1.218-1.372,1.218a1.738,1.738,0,0,1-1.568-.882,3.289,3.289,0,0,1-.42-1.47h-.5Zm15.162-4.046a5.12,5.12,0,0,0-.252-1.722,2.851,2.851,0,0,0-2.9-1.848c-2.128,0-3.514,1.54-3.514,3.892A3.505,3.505,0,0,0,146.972-.07a3.169,3.169,0,0,0,3.08-1.918l-.35-.224a2.6,2.6,0,0,1-2.31,1.6A2.014,2.014,0,0,1,145.488-2a5.481,5.481,0,0,1-.364-2.226Zm-4.844-.406a5.92,5.92,0,0,1,.294-1.61c.294-.812.756-1.232,1.358-1.232.546,0,.938.35,1.2,1.092a5.466,5.466,0,0,1,.238,1.75ZM160.16-.658c-.9-.014-.952-.1-.952-1.638,0-.1,0-.364.014-.756l.014-1.218.014-1.218a2.208,2.208,0,0,0-.546-1.736,2.982,2.982,0,0,0-2.072-.574,4.29,4.29,0,0,0-2.3.532,1.6,1.6,0,0,0-.868,1.3c0,.42.336.644.98.644.588,0,.826-.182.854-.686A2.11,2.11,0,0,1,155.526-7a.967.967,0,0,1,.938-.476c.84,0,1.092.434,1.092,1.918v.91a17.027,17.027,0,0,0-2.3.266c-1.5.294-2.24,1.036-2.24,2.24a1.961,1.961,0,0,0,2.156,2.058,3.115,3.115,0,0,0,2.394-1.134c.07.854.21,1.064.658,1.064.364,0,1.106-.07,1.932-.168Zm-2.6-2.59a3.581,3.581,0,0,1-.252,1.624,1.524,1.524,0,0,1-1.358.924c-.686,0-1.134-.658-1.134-1.652,0-1.3.714-1.82,2.744-1.974Zm5.67,3.066a2.968,2.968,0,0,1,.714-.084,3.061,3.061,0,0,1,.5.042,7.287,7.287,0,0,0,1.428.168,2.238,2.238,0,0,0,2.52-2.338c0-1.05-.462-1.6-1.89-2.254a6.148,6.148,0,0,1-1.568-.812.984.984,0,0,1-.434-.854,1.134,1.134,0,0,1,1.246-1.162c1.008,0,1.6.756,1.694,2.184h.518l.126-2.45a1.84,1.84,0,0,1-.672.14,3.168,3.168,0,0,1-.616-.084A6.655,6.655,0,0,0,165.8-7.8c-1.582,0-2.59.868-2.59,2.226a1.72,1.72,0,0,0,.49,1.26,4,4,0,0,0,1.512.952C166.838-2.6,167.2-2.3,167.2-1.61c0,.77-.518,1.218-1.372,1.218a1.738,1.738,0,0,1-1.568-.882,3.289,3.289,0,0,1-.42-1.47h-.5Zm8.484-3.7a4.13,4.13,0,0,0,.966,2.758,3.57,3.57,0,0,0,2.632,1.064A3.729,3.729,0,0,0,178.08-1.19,4.261,4.261,0,0,0,179-3.962,3.506,3.506,0,0,0,175.378-7.8a3.6,3.6,0,0,0-2.618.994A4.316,4.316,0,0,0,171.71-3.878Zm1.89-.07a6.185,6.185,0,0,1,.448-2.716,1.387,1.387,0,0,1,1.3-.812c1.218,0,1.778,1.12,1.778,3.57s-.546,3.528-1.764,3.528S173.6-1.526,173.6-3.948ZM184.7-7.77l-2.73.182v.336c.924.014,1.036.168,1.036,1.358v3.878c0,1.246-.1,1.386-1.064,1.4V-.28h3.822V-.616c-.952-.014-1.05-.14-1.05-1.4v-2.8a3.252,3.252,0,0,1,.378-1.442,1.654,1.654,0,0,1,1.442-.924c.868,0,1.232.63,1.232,2.142v3.024c0,1.232-.112,1.386-1.05,1.4V-.28h3.808V-.616c-.966-.014-1.064-.154-1.064-1.4V-5.124a3.1,3.1,0,0,0-.35-1.722,1.988,1.988,0,0,0-1.9-.952,2.677,2.677,0,0,0-2.492,1.414Z" transform="translate(499 4889)" fill="rgba(44,56,73,0.45)"/>
  </g>
</svg>
